<svg height="512" viewBox="0 0 49 57" width="512" xmlns="http://www.w3.org/2000/svg"><g id="Page-1" fill="none" fill-rule="evenodd"><g id="019---Measuring-Guage" fill="rgb(0,0,0)" fill-rule="nonzero"><path id="Shape" d="m46 23c-1.6568542 0-3 1.3431458-3 3v2h-4v-13c0-.5522847-.4477153-1-1-1h-2v23h2c.5522847 0 1-.4477153 1-1v-6h4v2c0 1.6568542 1.3431458 3 3 3s3-1.3431458 3-3v-6c0-1.6568542-1.3431458-3-3-3zm1 9c0 .5522847-.4477153 1-1 1s-1-.4477153-1-1v-6c0-.5522847.4477153-1 1-1s1 .4477153 1 1z"/><path id="Shape" d="m1.161 9h19.839c.5522847 0 1-.44771525 1-1v-4c0-.55228475-.4477153-1-1-1h-7.508c-.2451169-.00008443-.4893034.03014499-.727.09l-10.865 2.716c-.21274179.05311993-.40212679.17469174-.539.346l-.981 1.223c-.24033967.3001841-.28725909.71159035-.12068187 1.05818187.16657722.34659153.51713846.56696245.90168187.56681813z"/><path id="Shape" d="m16 20h-14.838c-.38454341-.0001443-.73510465.2202266-.90168187.5668181-.16657722.3465916-.1196578.7579978.12068187 1.0581819l.978 1.223c.13687321.1713083.32625821.2928801.539.346l10.867 2.716c.2376966.059855.4818831.0900844.727.09h2.508c.5522847 0 1-.4477153 1-1v-4c0-.5522847-.4477153-1-1-1z"/><path id="Shape" d="m34 38v-36c0-1.1045695-.8954305-2-2-2h-6c-1.1045695 0-2 .8954305-2 2v7h4c.5522847 0 1 .44771525 1 1 0 .5522847-.4477153 1-1 1h-4v2h2c.5522847 0 1 .4477153 1 1s-.4477153 1-1 1h-2v2h4c.5522847 0 1 .4477153 1 1s-.4477153 1-1 1h-4v2h2c.5522847 0 1 .4477153 1 1s-.4477153 1-1 1h-2v2h4c.5522847 0 1 .4477153 1 1s-.4477153 1-1 1h-4v2h2c.5522847 0 1 .4477153 1 1s-.4477153 1-1 1h-2v2h4c.5522847 0 1 .4477153 1 1s-.4477153 1-1 1h-4v2h2c.5522847 0 1 .4477153 1 1s-.4477153 1-1 1h-2v2h10z"/><path id="Shape" d="m22 27v-6c0-.5522847-.4477153-1-1-1h-1c-.5522847 0-1 .4477153-1 1v15c0 .5522847.4477153 1 1 1h2z"/><rect id="Rectangle-path" height="6" rx="1" width="14" x="22" y="43"/><rect id="Rectangle-path" height="6" rx="1" width="10" x="24" y="51"/></g></g></svg>